HIERARCHY
ROOT Hips
{
	OFFSET 0.00000 0.00000 0.00000
	CHANNELS 6 Xposition Yposition Zposition Zrotation Yrotation Xrotation 
	JOINT LHipJoint
	{
		OFFSET 0 0 0
		CHANNELS 3 Zrotation Yrotation Xrotation
		JOINT LeftHip
		{
			OFFSET 1.64577 -1.42384 0.94276
			CHANNELS 3 Zrotation Yrotation Xrotation
			JOINT LeftKnee
			{
				OFFSET 2.11538 -5.81197 0.00000
				CHANNELS 3 Zrotation Yrotation Xrotation
				JOINT LeftAnkle
				{
					OFFSET 2.36541 -6.49893 0.00000
					CHANNELS 3 Zrotation Yrotation Xrotation
					JOINT LeftToe
					{
						OFFSET 0.17759 -0.48793 1.73865
						CHANNELS 3 Zrotation Yrotation Xrotation
						End Site
						{
							OFFSET 0.00000 -0.00000 0.91205
						}
					}
				}
			}
		}
	}
	JOINT RHipJoint
	{
		OFFSET 0 0 0
		CHANNELS 3 Zrotation Yrotation Xrotation
		JOINT RightHip
		{
			OFFSET -1.43750 -1.42384 0.94276
			CHANNELS 3 Zrotation Yrotation Xrotation
			JOINT RightKnee
			{
				OFFSET -2.10480 -5.78291 0.00000
				CHANNELS 3 Zrotation Yrotation Xrotation
				JOINT RightAnkle
				{
					OFFSET -2.34880 -6.45329 0.00000
					CHANNELS 3 Zrotation Yrotation Xrotation
					JOINT RightToe
					{
						OFFSET -0.22842 -0.62757 1.80469
						CHANNELS 3 Zrotation Yrotation Xrotation
						End Site
						{
							OFFSET -0.00000 -0.00000 0.95886
						}
					}
				}
			}
		}
	}
	JOINT lowerback
	{
		OFFSET 0 0 0
		CHANNELS 3 Zrotation Yrotation Xrotation
		JOINT Chest
		{
			OFFSET 0.06217 1.93758 -0.49272
			CHANNELS 3 Zrotation Yrotation Xrotation
			JOINT Chest2
			{
				OFFSET -0.03114 2.03621 -0.05830
				CHANNELS 3 Zrotation Yrotation Xrotation
				JOINT lowerneck
				{
					OFFSET 0 0 0
					CHANNELS 3 Zrotation Yrotation Xrotation
					JOINT Neck
					{
						OFFSET 0.04421 1.41010 0.26562
						CHANNELS 3 Zrotation Yrotation Xrotation
						JOINT Head
						{
							OFFSET -0.13407 1.43847 0.06181
							CHANNELS 3 Zrotation Yrotation Xrotation
							End Site
							{
								OFFSET -0.04980 1.45844 -0.00689
							}
						}
					}
				}
				JOINT LeftCollar
				{
					OFFSET 0 0 0
					CHANNELS 3 Zrotation Yrotation Xrotation
					JOINT LeftShoulder
					{
						OFFSET 2.18382 1.47753 -0.35694
CHANNELS 3 Zrotation Xrotation Yrotation
						JOINT LeftElbow
						{
OFFSET 0 -5.054600 0.000000
CHANNELS 3 Zrotation Xrotation Yrotation
							JOINT LeftWrist
							{
OFFSET 0 -3.390130 0.000000
CHANNELS 3 Zrotation Xrotation Yrotation
								JOINT lhand
								{
									OFFSET 0 0 0
CHANNELS 3 Zrotation Xrotation Yrotation
									JOINT LFingers
									{
OFFSET 0 -0.572420 -0.000000
CHANNELS 3 Zrotation Xrotation Yrotation
										End Site
										{
OFFSET 0 -0.461500 -0.000000
										}
									}
								}
								JOINT LThumb
								{
OFFSET 0 0.000000 0.000000
CHANNELS 3 Zrotation Xrotation Yrotation
									End Site
									{
OFFSET 0 -0.468550 0.468550
									}
								}
							}
						}
					}
				}
				JOINT RightCollar
				{
					OFFSET 0 0 0
					CHANNELS 3 Zrotation Yrotation Xrotation
					JOINT RightShoulder
					{
						OFFSET -2.06033 1.72839 -0.47437
CHANNELS 3 Zrotation Xrotation Yrotation
						JOINT RightElbow
						{
OFFSET 0 -5.070100 0.000000
CHANNELS 3 Zrotation Xrotation Yrotation
							JOINT RightWrist
							{
OFFSET 0 -3.149570 -0.000000
CHANNELS 3 Zrotation Xrotation Yrotation
								JOINT rhand
								{
									OFFSET 0 0 0
CHANNELS 3 Zrotation Xrotation Yrotation
									JOINT RFingers
									{
OFFSET 0 -0.718190 -0.000000
CHANNELS 3 Zrotation Xrotation Yrotation
										End Site
										{
OFFSET 0 -0.579020 -0.000000
										}
									}
								}
								JOINT RThumb
								{
OFFSET 0 0.000000 0.000000
CHANNELS 3 Zrotation Xrotation Yrotation
									End Site
									{
OFFSET 0 -0.587860 0.587860
									}
								}
							}
						}
					}
				}
			}
		}
	}
}
MOTION
Frames: 7
Frame Time: 0.008333333333333333
10.900421 15.250930 1.356311 -191.704768 -264.332437 168.342890 0.000000 0.000000 0.000000 -20.558057 -18.550910 -4.359420 3.236218 11.067812 32.509102 1.751812 8.783332 -29.485563 0.252824 -3.235222 -8.934261 0.000000 0.000000 0.000000 24.451510 22.656369 -4.422980 -2.836898 -10.426260 30.368444 -0.834668 -15.859069 -29.298574 -3.437133 11.370964 -33.541546 -0.392240 0.200737 8.528322 -0.590801 0.348945 4.129469 -0.419039 0.225552 -0.508901 6.907402 4.187626 -7.706190 -6.406905 5.166555 0.010221 -3.098036 2.480698 1.749187 0.000000 0.000000 0.000000 8.603710 6.443515 -40.961507 23.485030 -34.614977 7.411998 22.100841 -1.436427 -10.100229 0.000000 0.000000 0.000000 -7.125000 0.000000 0.000000 -4.353137 40.824446 -0.449166 0.000000 0.000000 0.000000 -6.232633 14.349973 30.957514 -27.236831 -38.404060 -9.645929 -30.808950 -27.534008 -2.221907 0.000000 0.000000 0.000000 7.125000 0.000000 0.000000 -3.243064 27.388989 -1.390115
10.894737 15.245789 1.353567 -194.049015 -264.206686 165.972260 0.000000 0.000000 0.000000 -20.244514 -18.382857 -4.549087 3.286943 11.145608 32.772539 1.795347 8.557764 -29.619807 0.266429 -3.319616 -9.169991 0.000000 0.000000 0.000000 24.725662 22.679699 -4.433596 -2.844082 -10.438306 30.407973 -0.845436 -15.777838 -29.288320 -3.490917 11.450186 -33.813662 -0.157548 0.154163 8.752585 -0.502741 0.306816 4.152706 -0.457776 0.207551 -0.607792 7.042057 4.254091 -7.618671 -6.586328 5.250322 -0.141386 -3.182577 2.521330 1.701610 0.000000 0.000000 0.000000 8.864632 6.706735 -41.578792 23.486666 -34.616698 7.412938 21.995425 -1.388663 -10.234360 0.000000 0.000000 0.000000 -7.125000 0.000000 0.000000 -4.464186 40.958220 -0.445767 0.000000 0.000000 0.000000 -6.306460 14.374011 30.944936 -27.298810 -38.462622 -9.684418 -31.047498 -27.701103 -2.433807 0.000000 0.000000 0.000000 7.125000 0.000000 0.000000 -3.414528 27.135479 -1.483917
10.887804 15.241140 1.351208 -193.882558 -264.145598 166.139876 0.000000 0.000000 0.000000 -20.207406 -18.250483 -4.744709 3.326114 11.205078 32.974585 1.829122 8.395049 -29.732818 0.289261 -3.458129 -9.557101 0.000000 0.000000 0.000000 24.695202 22.682109 -4.539084 -2.859991 -10.464895 30.495671 -0.856788 -15.711309 -29.297731 -3.541089 11.523151 -34.065463 -0.131058 0.155755 9.017367 -0.503705 0.312822 4.177293 -0.475699 0.212186 -0.727564 7.001553 4.292397 -7.544136 -6.585280 5.303619 -0.387646 -3.173279 2.550143 1.609276 0.000000 0.000000 0.000000 9.238392 6.954654 -42.393306 23.535881 -34.669596 7.440911 21.866287 -1.417849 -10.395286 0.000000 0.000000 0.000000 -7.125000 0.000000 0.000000 -4.600272 41.118166 -0.441460 0.000000 0.000000 0.000000 -6.321167 14.346588 30.771395 -27.340506 -38.501916 -9.710336 -31.150895 -27.837445 -2.599677 0.000000 0.000000 0.000000 7.125000 0.000000 0.000000 -3.484236 26.938924 -1.530335
10.879067 15.236432 1.348050 -192.141371 -264.150497 167.899598 0.000000 0.000000 0.000000 -20.359324 -18.159164 -4.924530 3.350840 11.242451 33.101823 1.858627 8.255400 -29.833109 0.310823 -3.584021 -9.909228 0.000000 0.000000 0.000000 24.453904 22.664129 -4.731449 -2.887935 -10.511390 30.649300 -0.867609 -15.667517 -29.327165 -3.605847 11.616495 -34.388462 -0.237240 0.173326 9.326302 -0.567868 0.329637 4.217693 -0.485526 0.221844 -0.855178 6.983242 4.275819 -7.636112 -6.623689 5.276159 -0.528606 -3.183424 2.535420 1.578254 0.000000 0.000000 0.000000 9.729107 7.152708 -43.368183 23.612443 -34.751708 7.484504 21.877228 -1.565133 -10.485987 0.000000 0.000000 0.000000 -7.125000 0.000000 0.000000 -4.603366 41.215999 -0.430638 0.000000 0.000000 0.000000 -6.284524 14.293470 30.482451 -27.418246 -38.575125 -9.758826 -31.145480 -27.921078 -2.701621 0.000000 0.000000 0.000000 7.125000 0.000000 0.000000 -3.474309 26.820373 -1.535670
10.870275 15.232718 1.344227 -190.762452 -264.108795 169.346396 0.000000 0.000000 0.000000 -20.437183 -18.101129 -5.166547 3.365220 11.263979 33.175371 1.880647 8.149344 -29.907215 0.328131 -3.681238 -10.181535 0.000000 0.000000 0.000000 24.241129 22.730292 -4.993657 -2.927849 -10.577319 30.867404 -0.888436 -15.594487 -29.395331 -3.666067 11.702176 -34.686354 -0.310342 0.186407 9.628122 -0.616833 0.343573 4.275809 -0.498189 0.230606 -0.960391 7.060122 4.195848 -7.973179 -6.810841 5.151898 -0.452641 -3.264217 2.465698 1.665284 0.000000 0.000000 0.000000 10.264451 7.347224 -44.336541 23.727908 -34.875106 7.550421 22.078450 -1.786045 -10.431785 0.000000 0.000000 0.000000 -7.125000 0.000000 0.000000 -4.418088 41.176808 -0.417480 0.000000 0.000000 0.000000 -6.278636 14.213458 30.184108 -27.527529 -38.677600 -9.827054 -31.106776 -27.822907 -2.538438 0.000000 0.000000 0.000000 7.125000 0.000000 0.000000 -3.453929 27.011810 -1.511072
10.861648 15.230811 1.340322 -189.836109 -264.033416 170.407150 0.000000 0.000000 0.000000 -20.432824 -18.082602 -5.498668 3.379024 11.284686 33.246209 1.888457 8.093309 -29.922018 0.349383 -3.797757 -10.508298 0.000000 0.000000 0.000000 24.059402 22.887135 -5.319603 -2.973349 -10.651789 31.114338 -0.908688 -15.536818 -29.475160 -3.735815 11.800259 -35.029010 -0.399707 0.172875 9.923372 -0.625552 0.319234 4.302055 -0.456231 0.219163 -1.095256 6.948416 4.195303 -7.780463 -6.801850 5.162342 -0.850605 -3.242420 2.476142 1.495636 0.000000 0.000000 0.000000 10.736795 7.712585 -45.034750 23.923621 -35.083352 7.662581 22.176261 -1.858699 -10.197293 0.000000 0.000000 0.000000 -7.125000 0.000000 0.000000 -4.299753 40.935232 -0.431920 0.000000 0.000000 0.000000 -6.379444 14.152337 29.970776 -27.643958 -38.786400 -9.899799 -31.039571 -27.398242 -1.893357 0.000000 0.000000 0.000000 7.125000 0.000000 0.000000 -3.437491 27.765146 -1.442777
10.848865 15.229716 1.334068 -188.361539 -263.976100 172.042322 0.000000 0.000000 0.000000 -20.496474 -17.968700 -5.849034 3.397163 11.311805 33.338904 1.895454 7.927268 -29.862942 0.363499 -3.872731 -10.718913 0.000000 0.000000 0.000000 23.773269 23.011373 -5.715815 -3.019842 -10.727073 31.364975 -0.915664 -15.530539 -29.516694 -3.825072 11.923812 -35.463068 -0.545159 0.155640 10.246800 -0.654321 0.284328 4.337785 -0.402261 0.202482 -1.235450 7.249098 4.179133 -7.626764 -7.258986 5.126363 -1.181555 -3.463667 2.455337 1.385416 0.000000 0.000000 0.000000 11.228558 8.156161 -45.563704 24.190413 -35.364845 7.816559 21.895643 -1.733108 -10.206386 0.000000 0.000000 0.000000 -7.125000 0.000000 0.000000 -4.548105 40.919269 -0.458824 0.000000 0.000000 0.000000 -6.510237 14.164373 29.814435 -27.962336 -39.081344 -10.099982 -31.104590 -27.064255 -1.221272 0.000000 0.000000 0.000000 7.125000 0.000000 0.000000 -3.521666 28.546660 -1.412866
